<svg width="41" height="46" viewBox="0 0 41 46" fill="none" xmlns="http://www.w3.org/2000/svg">
<path fill-rule="evenodd" clip-rule="evenodd" d="M3.01863 3.6061H15.7968V1.40755C15.7968 0.633398 16.3603 0 17.0513 0H24.1062C24.7969 0 25.3608 0.633024 25.3608 1.40755V3.60648H37.9831C38.4145 3.60648 38.7662 4.00216 38.7662 4.48582V8.79608H2.23553V4.48545C2.23553 4.00179 2.58754 3.6061 3.01863 3.6061ZM5.13503 11.0826H36.1389C36.7852 11.0826 37.3721 11.6812 37.3138 12.4018L34.6899 44.6815C34.6318 45.4025 34.1593 45.9996 33.5144 45.9996H7.72255C7.07726 45.9996 6.60413 45.4037 6.54674 44.6815L3.95922 12.4018C3.90183 11.6786 4.48807 11.0826 5.13503 11.0826ZM25.2837 16.0963H28.5756V40.5465H25.2837V16.0963ZM12.2693 16.0963H15.5615V40.5465H12.2693V16.0963ZM18.7757 16.0963H22.0686V40.5465H18.7757V16.0963Z" fill="white"/>
</svg>
