<svg width="41" height="46" viewBox="0 0 41 46" fill="none" xmlns="http://www.w3.org/2000/svg">
<path d="M27.9526 3.83126V0H4V46H27.9526V22.6386L25.493 6.6788L25.2437 5.06145L26.1859 4.63349L27.9526 3.83126ZM10.7131 39.7182H8.76401V6.28135H10.7131V39.7182ZM16.9507 39.7182H15.0016V6.28135H16.9507V39.7182ZM23.1885 39.7182H21.2394V6.28135H23.1885V39.7182Z" fill="white"/>
<path d="M33.7259 14.0827L33.2548 14.2965L32.7837 14.5103L31.1789 4.0965L27.9528 5.56165L26.4351 6.25093L27.9528 16.0976L32.5612 45.9996L37.305 43.8453L35.7925 34.0308L36.2636 33.8169L36.7347 33.6031L40.53 31.8797L37.5216 12.3593L33.7259 14.0827ZM36.2357 30.3688L35.7647 30.5826L35.2936 30.7964L33.282 17.7447L33.7531 17.5309L34.2242 17.3171L36.1351 16.4492L38.1467 29.5007L36.2357 30.3688Z" fill="white"/>
</svg>
