<svg width="60" height="80" viewBox="0 0 60 80" fill="none" xmlns="http://www.w3.org/2000/svg">
<g clip-path="url(#clip0_44_186)">
<rect width="33.0183" height="37.7352" rx="10" transform="matrix(0.848014 -0.529974 0.848014 0.529974 0 15.4989)" fill="#232439"/>
<g clip-path="url(#clip1_44_186)">
<path d="M27.6952 18.3598C27.305 18.0559 26.5963 18.0598 26.0852 18.3622C25.9624 18.4348 25.7789 18.4336 25.6842 18.359C25.5904 18.286 25.618 18.1649 25.7408 18.0926C25.8645 18.0192 26.0399 18.0192 26.1382 18.0961C26.3693 17.9571 26.5986 17.8172 26.8274 17.6766C26.5048 17.4231 25.9842 17.3786 25.5288 17.5258C25.464 17.4747 25.3992 17.4243 25.3339 17.3723C25.1273 17.4961 24.9198 17.6188 24.7118 17.7407C24.7802 17.7942 24.8495 17.8485 24.9193 17.902C24.6742 18.1813 24.6755 18.5211 24.9769 18.7563C25.145 18.8879 25.3706 18.9657 25.6217 18.9883C25.957 19.0196 26.329 18.9508 26.619 18.7786C26.7422 18.7063 26.9181 18.7063 27.0123 18.7801C27.107 18.8543 27.0871 18.9758 26.9638 19.0489C26.841 19.1219 26.6571 19.1204 26.5624 19.0473C26.3299 19.1821 26.0961 19.3161 25.8605 19.4485C26.1595 19.6821 26.6679 19.7415 27.1134 19.6192C27.194 19.6821 27.2733 19.7458 27.3544 19.8083C27.5633 19.6868 27.7704 19.5649 27.9766 19.4411C27.8982 19.3815 27.8209 19.3209 27.7446 19.2594C28.0173 18.9696 28.0056 18.6043 27.6952 18.3598Z" fill="white"/>
<path d="M35.5401 11.5023C35.8351 11.5023 36.1437 11.3816 36.3625 11.1539C36.4559 11.0574 36.6068 11.0391 36.701 11.1129C36.7962 11.1867 36.8007 11.3273 36.7078 11.4238C36.6145 11.5207 36.4559 11.5387 36.3616 11.4652C36.1849 11.6453 36.0068 11.8238 35.8279 12.0012C36.1265 12.2351 36.5755 12.2465 36.9367 12.0582L37.1782 12.2469C37.3368 12.0855 37.4931 11.9238 37.6481 11.7605L37.4165 11.5797C37.5982 11.2195 37.5221 10.8043 37.2126 10.5609C36.8216 10.2562 36.2144 10.3383 35.8292 10.7367C35.7359 10.8336 35.5773 10.8516 35.483 10.7781C35.3883 10.7039 35.392 10.5633 35.4839 10.4668C35.5786 10.3707 35.7286 10.3512 35.8265 10.4273C36.001 10.2453 36.1736 10.0609 36.3435 9.87616C36.02 9.62304 35.5664 9.62772 35.2012 9.8453L35.005 9.69218C34.8505 9.85546 34.6932 10.0176 34.5351 10.1785C34.6044 10.2324 34.6738 10.2871 34.7426 10.3402C34.5818 10.6859 34.6416 11.0734 34.9438 11.3086C35.1124 11.441 35.3195 11.5055 35.5401 11.5023Z" fill="white"/>
<path d="M43.0497 15.3801C43.4098 15.0034 43.7579 14.6183 44.0938 14.2254C43.9528 13.252 43.7983 12.2684 43.6288 11.2781L43.5704 11.2328L43.7838 10.9633L43.2491 10.5445C40.606 8.47617 37.9639 6.4082 35.3208 4.34062L34.6062 3.78125L34.0634 4.46758C33.1385 5.63151 32.1391 6.75017 31.07 7.81836C31.1285 7.6043 31.1924 7.38359 31.2622 7.1543C31.5481 6.21875 31.2132 5.58359 30.8815 5.21602C30.2639 4.53047 29.0949 4.15234 27.5882 4.15234C23.3162 4.15234 17.1355 7.04844 17.1355 12.2848C17.1355 13.0035 17.6911 13.5059 18.4858 13.5059C19.0726 13.5059 19.7505 13.223 20.5118 12.6625C20.5834 12.8746 20.6912 13.075 20.8489 13.2453C21.1507 13.5719 21.5956 13.752 22.1022 13.752C22.216 13.752 22.3329 13.7434 22.453 13.7254C22.5069 13.9508 22.6057 14.1738 22.7633 14.3684C21.2899 15.2839 19.7583 16.1279 18.1759 16.8965L17.1704 17.3828L17.9729 18.0109C17.8089 18.0984 17.6444 18.1863 17.4808 18.2715C17.2996 18.9934 17.1079 19.7059 16.9062 20.4055C19.8085 22.6773 22.7103 24.9473 25.6121 27.2188C28.1386 26.0339 30.5829 24.7231 32.9324 23.293C32.9333 23.2941 32.9333 23.2957 32.9342 23.2965C33.1526 23.6234 33.5088 23.8469 33.9959 23.966C33.1526 24.8055 32.8495 25.5246 33.0941 26.1117C33.2894 26.5793 33.792 26.8586 34.439 26.8586C40.5499 26.8586 43.9293 21.5625 43.9293 17.9016C43.9293 17.0285 43.7276 16.2762 43.3461 15.7266C43.2593 15.6038 43.1602 15.4878 43.0497 15.3801ZM30.7383 9.22695C32.1979 7.85 33.5468 6.39883 34.7557 4.86992C37.3988 6.93789 40.0415 9.00547 42.6841 11.0742C41.5872 12.4548 40.3888 13.7734 39.0962 15.0219C38.6775 15.098 38.282 15.1641 37.9195 15.2148C39.0514 14.1633 40.1239 13.0715 41.1086 11.9273L40.8444 11.7207C40.5521 11.4922 40.51 11.0832 40.7415 10.8043C40.8113 10.7191 40.8815 10.6352 40.9513 10.5508C39.1891 9.17266 37.4274 7.79336 35.6665 6.41523L35.4567 6.66875C35.2247 6.94688 34.7929 6.98555 34.502 6.75703L34.2374 6.55117C33.1136 7.85664 31.8816 9.09805 30.5684 10.2824C30.6078 9.96445 30.6627 9.61406 30.7383 9.22695ZM33.9306 13.0562C33.0058 12.332 31.7108 12.1684 30.5521 12.4973C30.5172 12.3008 30.4669 11.8887 30.49 11.2402C31.8723 10.0419 33.1648 8.76904 34.3597 7.4293C34.8097 7.63047 35.3448 7.58555 35.7399 7.30742L40.0347 10.668C39.8326 11.0969 39.8815 11.6 40.1733 11.9797C39.1311 13.1527 38.0001 14.2719 36.803 15.3449C36.3008 15.3931 35.7961 15.4186 35.2909 15.4211C35.1463 15.4211 35.0186 15.418 34.8994 15.4137C35.0621 14.573 34.7281 13.6801 33.9306 13.0562ZM22.1997 13.0262C22.1679 13.0285 22.1326 13.0344 22.1027 13.0344C21.09 13.0344 21.1892 11.7832 21.2966 11.1773C21.8553 10.6977 22.3809 10.1969 22.9296 9.72344C23.5087 9.21484 24.1173 8.73359 24.802 8.35C25.4862 7.96953 26.2633 7.69961 27.1056 7.63242C26.2642 7.55742 25.3847 7.74648 24.6347 8.10898C23.8753 8.46484 23.2269 8.95781 22.6306 9.47266C22.0383 9.99297 21.495 10.543 20.9477 11.084C20.3962 11.618 19.8507 12.1539 19.185 12.5953C18.9054 12.7273 18.6707 12.7879 18.4854 12.7879C18.1478 12.7879 17.972 12.5918 17.972 12.2844C17.972 7.38711 23.8749 4.86953 27.5873 4.86953C29.5358 4.86953 30.8815 5.56406 30.4502 6.97266C29.2004 11.0656 29.775 12.8309 29.775 12.8309C29.2856 13.618 28.3422 13.8738 28.3422 13.8738C27.8281 13.7543 27.2978 13.6945 26.7653 13.6961C25.6987 13.6961 24.9442 13.9242 24.9442 13.9242C24.5455 14.1187 24.2374 14.1973 23.9995 14.1973C23.1385 14.1973 23.2038 13.1629 23.2518 12.8047C23.3655 12.7586 23.4761 12.7086 23.5826 12.6547C24.0094 12.443 24.3864 12.1773 24.7544 11.9172C25.1178 11.6523 25.4712 11.3879 25.8455 11.1555C26.2211 10.9266 26.6253 10.7359 27.1047 10.6594C26.9835 10.6408 26.8603 10.6338 26.7372 10.6387C26.3675 10.6531 25.9964 10.7656 25.6733 10.9168C25.2333 11.1172 24.8532 11.382 24.4843 11.6426C24.1205 11.9094 23.7679 12.1766 23.4009 12.4223C23.0352 12.6645 22.6496 12.8793 22.1997 13.0262ZM31.3723 21.0371C29.8148 22.0129 28.1934 22.9105 26.5161 23.7254C23.8735 21.6566 21.2313 19.5902 18.5882 17.5211C20.2693 16.7046 21.8942 15.8051 23.4548 14.827C23.6247 14.8813 23.8064 14.9156 23.9999 14.9156C24.1984 14.9156 24.4064 14.8859 24.6257 14.8281C23.3727 15.6445 22.0747 16.4082 20.7361 17.1164C20.824 17.1855 20.9128 17.2547 21.0002 17.3242C21.2911 17.552 21.2427 17.8891 20.8874 18.0699C20.7787 18.1246 20.6708 18.1797 20.563 18.2336L25.8482 22.3699C25.957 22.3152 26.0644 22.2613 26.1727 22.2051C26.5284 22.0246 27.0517 22.0582 27.3431 22.2859L27.6072 22.4937C28.9864 21.7628 30.3225 20.9732 31.6106 20.1277C31.4384 20.457 31.3596 20.7609 31.3723 21.0371ZM31.9128 19.1641C30.5541 20.0931 29.1393 20.9596 27.6743 21.7598C27.1886 21.532 26.5451 21.4941 25.9991 21.6527L21.7039 18.2922C22.0583 17.9832 22.1158 17.5637 21.8598 17.2113C23.4264 16.3569 24.9361 15.4272 26.3815 14.4266C26.5039 14.4191 26.6308 14.4141 26.7658 14.4141C27.2235 14.4127 27.6794 14.4638 28.1215 14.566L28.199 14.5844C27.9761 15.393 28.243 16.2453 29.0491 16.8762C29.7895 17.4551 30.8258 17.7207 31.8308 17.6535C31.9763 18.2266 31.9681 18.757 31.9128 19.1641ZM34.4386 26.141C33.8817 26.141 33.6433 25.7754 34.082 25.0949C34.5962 24.5281 35.2193 24.0617 35.8396 23.5918C36.4708 23.123 37.1125 22.6566 37.7201 22.1496C38.32 21.6387 38.896 21.0836 39.311 20.4324C39.7338 19.7898 39.9549 19.0359 39.8675 18.3148C39.7886 19.0367 39.4746 19.7031 39.0301 20.2898C38.5824 20.8762 38.0205 21.3977 37.4274 21.8941C36.875 22.3637 36.2909 22.8141 35.7318 23.2926C35.5161 23.3207 35.2315 23.348 34.9388 23.348C34.2442 23.348 33.511 23.1922 33.5704 22.5262C33.7417 22.1371 33.994 21.8043 34.2777 21.4883C34.5645 21.1738 34.8763 20.8719 35.1876 20.5602C35.4921 20.2437 35.8011 19.918 36.0345 19.5414C36.2692 19.1723 36.4246 18.7301 36.3349 18.3148C36.2461 18.7258 36.0236 19.0723 35.7567 19.3941C35.4857 19.7148 35.1772 20.018 34.8672 20.3297C34.5641 20.6453 34.2537 20.9684 34.0072 21.334C33.9437 21.4259 33.8854 21.5204 33.8327 21.6172C33.694 21.6306 33.5545 21.6377 33.415 21.6383C32.7072 21.6383 31.6795 21.4434 32.5259 20.1664C32.5259 20.1664 33.0833 18.8121 32.5848 17.2547C32.5848 17.2547 32.883 16.4461 33.801 16.0266C33.801 16.0266 34.2736 16.1395 35.2909 16.1395C36.3974 16.1395 38.1488 16.0059 40.6378 15.4477C40.8283 15.4034 41.0245 15.3801 41.2218 15.3785C45.2039 15.3785 42.7738 26.141 34.4386 26.141Z" fill="white"/>
</g>
</g>
<defs>
<clipPath id="clip0_44_186">
<rect width="60" height="80" fill="white"/>
</clipPath>
<clipPath id="clip1_44_186">
<rect width="29" height="25" fill="white" transform="translate(16 3)"/>
</clipPath>
</defs>
</svg>
