<svg width="60" height="65" viewBox="0 0 60 65" fill="none" xmlns="http://www.w3.org/2000/svg">
<rect width="33.366" height="38.1325" rx="10" transform="matrix(0.839179 -0.543856 0.839179 0.543856 0 44.1462)" fill="#364B76" fill-opacity="0.2"/>
<rect width="33.366" height="38.1325" rx="10" transform="matrix(0.839179 -0.543856 0.839179 0.543856 0 37.8042)" fill="#364B76" fill-opacity="0.4"/>
<rect width="33.366" height="38.1325" rx="10" transform="matrix(0.839179 -0.543856 0.839179 0.543856 0 31.2124)" fill="#364B76" fill-opacity="0.6"/>
<rect width="33.366" height="38.1325" rx="10" transform="matrix(0.839179 -0.543856 0.839179 0.543856 0 25.1171)" fill="#364B76" fill-opacity="0.8"/>
<rect width="33.366" height="38.1325" rx="10" transform="matrix(0.839179 -0.543856 0.839179 0.543856 0 17.1462)" fill="#364B76"/>
<path fill-rule="evenodd" clip-rule="evenodd" d="M16.3744 11.805L13.6167 22.1213L16.8222 23.625L18.369 22.8994L29.5884 28.1626L34.2288 25.9857L26.2149 22.2263L30.8553 20.0494L38.8692 23.8089L51.2436 18.0039L40.0241 12.7407L41.5709 12.0151L38.3654 10.5113L32.8676 10.8348L27.2579 8.20319L22.6175 10.38L24.621 11.3199L16.3744 11.805ZM33.9489 18.5982L38.5893 16.4214L43.3976 18.677L38.7572 20.8539L33.9489 18.5982Z" fill="white"/>
</svg>
