<svg width="60" height="80" viewBox="0 0 60 80" fill="none" xmlns="http://www.w3.org/2000/svg">
<g clip-path="url(#clip0_44_203)">
<rect width="33.0183" height="37.7352" rx="10" transform="matrix(0.848014 -0.529974 0.848014 0.529974 0 15.4989)" fill="#232439"/>
<g clip-path="url(#clip1_44_203)">
<path d="M41.0334 13L44.1 15.6667C44.56 16.0667 44.56 16.6 44.1 17L30.3 29C29.84 29.4 29.2267 29.4 28.7667 29L18.8 20.3333C18.34 19.9333 18.34 19.4 18.8 19L32.6 7C33.06 6.6 33.6734 6.6 34.1334 7L37.2 9.66667L33.75 12.6667C32.6767 13.6 32.6767 15.0667 33.75 16C34.8234 16.9333 36.51 16.9333 37.5834 16L41.0334 13ZM34.9 13.6667C34.44 14.0667 34.44 14.6 34.9 15C35.36 15.4 35.9734 15.4 36.4334 15C36.8934 14.6 36.8934 14.0667 36.4334 13.6667C35.9734 13.2667 35.36 13.2667 34.9 13.6667ZM20.7167 4C19.6434 4.93333 19.6434 6.4 20.7167 7.33333C21.79 8.26667 23.4767 8.26667 24.55 7.33333C25.6234 6.4 25.6234 4.93333 24.55 4C23.4767 3.06667 21.79 3.06667 20.7167 4ZM23.9367 11.8667C23.7834 11.4667 23.5534 11.1333 23.17 10.8C21.8667 9.66667 19.8734 9.66667 18.57 10.8C17.2667 11.9333 17.2667 13.6667 18.57 14.8C18.9534 15.1333 19.3367 15.3333 19.7967 15.4667L23.9367 11.8667Z" fill="white"/>
</g>
</g>
<defs>
<clipPath id="clip0_44_203">
<rect width="60" height="80" fill="white"/>
</clipPath>
<clipPath id="clip1_44_203">
<rect width="30.4795" height="30.4795" fill="white" transform="matrix(0.754605 -0.656179 0.754605 0.656179 5 14)"/>
</clipPath>
</defs>
</svg>
