<svg width="60" height="80" viewBox="0 0 60 80" fill="none" xmlns="http://www.w3.org/2000/svg">
<rect width="33.366" height="38.1325" rx="10" transform="matrix(0.839179 -0.543856 0.839179 0.543856 0 43.4246)" fill="#232439" fill-opacity="0.2"/>
<rect width="33.366" height="38.1325" rx="10" transform="matrix(0.839179 -0.543856 0.839179 0.543856 0 36.8042)" fill="#232439" fill-opacity="0.4"/>
<rect width="33.366" height="38.1325" rx="10" transform="matrix(0.839179 -0.543856 0.839179 0.543856 0 30.2124)" fill="#232439" fill-opacity="0.6"/>
<rect width="33.366" height="38.1325" rx="10" transform="matrix(0.839179 -0.543856 0.839179 0.543856 0 24.1171)" fill="#232439" fill-opacity="0.8"/>
<rect width="33.366" height="38.1325" rx="10" transform="matrix(0.839179 -0.543856 0.839179 0.543856 0 16.1462)" fill="#232439"/>
<g clip-path="url(#clip0_44_225)">
<path d="M27.6952 19.3598C27.305 19.0559 26.5963 19.0598 26.0852 19.3622C25.9624 19.4348 25.7789 19.4336 25.6842 19.359C25.5904 19.286 25.618 19.1649 25.7408 19.0926C25.8645 19.0192 26.0399 19.0192 26.1382 19.0961C26.3693 18.9571 26.5986 18.8172 26.8274 18.6766C26.5048 18.4231 25.9842 18.3786 25.5288 18.5258C25.464 18.4747 25.3992 18.4243 25.3339 18.3723C25.1273 18.4961 24.9198 18.6188 24.7118 18.7407C24.7802 18.7942 24.8495 18.8485 24.9193 18.902C24.6742 19.1813 24.6755 19.5211 24.9769 19.7563C25.145 19.8879 25.3706 19.9657 25.6217 19.9883C25.957 20.0196 26.329 19.9508 26.619 19.7786C26.7422 19.7063 26.9181 19.7063 27.0123 19.7801C27.107 19.8543 27.0871 19.9758 26.9638 20.0489C26.841 20.1219 26.6571 20.1204 26.5624 20.0473C26.3299 20.1821 26.0961 20.3161 25.8605 20.4485C26.1595 20.6821 26.6679 20.7415 27.1134 20.6192C27.194 20.6821 27.2733 20.7458 27.3544 20.8083C27.5633 20.6868 27.7704 20.5649 27.9766 20.4411C27.8982 20.3815 27.8209 20.3209 27.7446 20.2594C28.0173 19.9696 28.0056 19.6043 27.6952 19.3598Z" fill="white"/>
<path d="M35.5401 12.5023C35.8351 12.5023 36.1437 12.3816 36.3625 12.1539C36.4559 12.0574 36.6068 12.0391 36.701 12.1129C36.7962 12.1867 36.8007 12.3273 36.7078 12.4238C36.6145 12.5207 36.4559 12.5387 36.3616 12.4652C36.1849 12.6453 36.0068 12.8238 35.8279 13.0012C36.1265 13.2351 36.5755 13.2465 36.9367 13.0582L37.1782 13.2469C37.3368 13.0855 37.4931 12.9238 37.6481 12.7605L37.4165 12.5797C37.5982 12.2195 37.5221 11.8043 37.2126 11.5609C36.8216 11.2562 36.2144 11.3383 35.8292 11.7367C35.7359 11.8336 35.5773 11.8516 35.483 11.7781C35.3883 11.7039 35.392 11.5633 35.4839 11.4668C35.5786 11.3707 35.7286 11.3512 35.8265 11.4273C36.001 11.2453 36.1736 11.0609 36.3435 10.8762C36.02 10.623 35.5664 10.6277 35.2012 10.8453L35.005 10.6922C34.8505 10.8555 34.6932 11.0176 34.5351 11.1785C34.6044 11.2324 34.6738 11.2871 34.7426 11.3402C34.5818 11.6859 34.6416 12.0734 34.9438 12.3086C35.1124 12.441 35.3195 12.5055 35.5401 12.5023Z" fill="white"/>
<path d="M43.0497 16.3801C43.4098 16.0034 43.7579 15.6183 44.0938 15.2254C43.9528 14.252 43.7983 13.2684 43.6288 12.2781L43.5704 12.2328L43.7838 11.9633L43.2491 11.5445C40.606 9.47617 37.9639 7.4082 35.3208 5.34062L34.6062 4.78125L34.0634 5.46758C33.1385 6.63151 32.1391 7.75017 31.07 8.81836C31.1285 8.6043 31.1924 8.38359 31.2622 8.1543C31.5481 7.21875 31.2132 6.58359 30.8815 6.21602C30.2639 5.53047 29.0949 5.15234 27.5882 5.15234C23.3162 5.15234 17.1355 8.04844 17.1355 13.2848C17.1355 14.0035 17.6911 14.5059 18.4858 14.5059C19.0726 14.5059 19.7505 14.223 20.5118 13.6625C20.5834 13.8746 20.6912 14.075 20.8489 14.2453C21.1507 14.5719 21.5956 14.752 22.1022 14.752C22.216 14.752 22.3329 14.7434 22.453 14.7254C22.5069 14.9508 22.6057 15.1738 22.7633 15.3684C21.2899 16.2839 19.7583 17.1279 18.1759 17.8965L17.1704 18.3828L17.9729 19.0109C17.8089 19.0984 17.6444 19.1863 17.4808 19.2715C17.2996 19.9934 17.1079 20.7059 16.9062 21.4055C19.8085 23.6773 22.7103 25.9473 25.6121 28.2188C28.1386 27.0339 30.5829 25.7231 32.9324 24.293C32.9333 24.2941 32.9333 24.2957 32.9342 24.2965C33.1526 24.6234 33.5088 24.8469 33.9959 24.966C33.1526 25.8055 32.8495 26.5246 33.0941 27.1117C33.2894 27.5793 33.792 27.8586 34.439 27.8586C40.5499 27.8586 43.9293 22.5625 43.9293 18.9016C43.9293 18.0285 43.7276 17.2762 43.3461 16.7266C43.2593 16.6038 43.1602 16.4878 43.0497 16.3801ZM30.7383 10.227C32.1979 8.85 33.5468 7.39883 34.7557 5.86992C37.3988 7.93789 40.0415 10.0055 42.6841 12.0742C41.5872 13.4548 40.3888 14.7734 39.0962 16.0219C38.6775 16.098 38.282 16.1641 37.9195 16.2148C39.0514 15.1633 40.1239 14.0715 41.1086 12.9273L40.8444 12.7207C40.5521 12.4922 40.51 12.0832 40.7415 11.8043C40.8113 11.7191 40.8815 11.6352 40.9513 11.5508C39.1891 10.1727 37.4274 8.79336 35.6665 7.41523L35.4567 7.66875C35.2247 7.94688 34.7929 7.98555 34.502 7.75703L34.2374 7.55117C33.1136 8.85664 31.8816 10.098 30.5684 11.2824C30.6078 10.9645 30.6627 10.6141 30.7383 10.227ZM33.9306 14.0562C33.0058 13.332 31.7108 13.1684 30.5521 13.4973C30.5172 13.3008 30.4669 12.8887 30.49 12.2402C31.8723 11.0419 33.1648 9.76904 34.3597 8.4293C34.8097 8.63047 35.3448 8.58555 35.7399 8.30742L40.0347 11.668C39.8326 12.0969 39.8815 12.6 40.1733 12.9797C39.1311 14.1527 38.0001 15.2719 36.803 16.3449C36.3008 16.3931 35.7961 16.4186 35.2909 16.4211C35.1463 16.4211 35.0186 16.418 34.8994 16.4137C35.0621 15.573 34.7281 14.6801 33.9306 14.0562ZM22.1997 14.0262C22.1679 14.0285 22.1326 14.0344 22.1027 14.0344C21.09 14.0344 21.1892 12.7832 21.2966 12.1773C21.8553 11.6977 22.3809 11.1969 22.9296 10.7234C23.5087 10.2148 24.1173 9.73359 24.802 9.35C25.4862 8.96953 26.2633 8.69961 27.1056 8.63242C26.2642 8.55742 25.3847 8.74648 24.6347 9.10898C23.8753 9.46484 23.2269 9.95781 22.6306 10.4727C22.0383 10.993 21.495 11.543 20.9477 12.084C20.3962 12.618 19.8507 13.1539 19.185 13.5953C18.9054 13.7273 18.6707 13.7879 18.4854 13.7879C18.1478 13.7879 17.972 13.5918 17.972 13.2844C17.972 8.38711 23.8749 5.86953 27.5873 5.86953C29.5358 5.86953 30.8815 6.56406 30.4502 7.97266C29.2004 12.0656 29.775 13.8309 29.775 13.8309C29.2856 14.618 28.3422 14.8738 28.3422 14.8738C27.8281 14.7543 27.2978 14.6945 26.7653 14.6961C25.6987 14.6961 24.9442 14.9242 24.9442 14.9242C24.5455 15.1187 24.2374 15.1973 23.9995 15.1973C23.1385 15.1973 23.2038 14.1629 23.2518 13.8047C23.3655 13.7586 23.4761 13.7086 23.5826 13.6547C24.0094 13.443 24.3864 13.1773 24.7544 12.9172C25.1178 12.6523 25.4712 12.3879 25.8455 12.1555C26.2211 11.9266 26.6253 11.7359 27.1047 11.6594C26.9835 11.6408 26.8603 11.6338 26.7372 11.6387C26.3675 11.6531 25.9964 11.7656 25.6733 11.9168C25.2333 12.1172 24.8532 12.382 24.4843 12.6426C24.1205 12.9094 23.7679 13.1766 23.4009 13.4223C23.0352 13.6645 22.6496 13.8793 22.1997 14.0262ZM31.3723 22.0371C29.8148 23.0129 28.1934 23.9105 26.5161 24.7254C23.8735 22.6566 21.2313 20.5902 18.5882 18.5211C20.2693 17.7046 21.8942 16.8051 23.4548 15.827C23.6247 15.8813 23.8064 15.9156 23.9999 15.9156C24.1984 15.9156 24.4064 15.8859 24.6257 15.8281C23.3727 16.6445 22.0747 17.4082 20.7361 18.1164C20.824 18.1855 20.9128 18.2547 21.0002 18.3242C21.2911 18.552 21.2427 18.8891 20.8874 19.0699C20.7787 19.1246 20.6708 19.1797 20.563 19.2336L25.8482 23.3699C25.957 23.3152 26.0644 23.2613 26.1727 23.2051C26.5284 23.0246 27.0517 23.0582 27.3431 23.2859L27.6072 23.4937C28.9864 22.7628 30.3225 21.9732 31.6106 21.1277C31.4384 21.457 31.3596 21.7609 31.3723 22.0371ZM31.9128 20.1641C30.5541 21.0931 29.1393 21.9596 27.6743 22.7598C27.1886 22.532 26.5451 22.4941 25.9991 22.6527L21.7039 19.2922C22.0583 18.9832 22.1158 18.5637 21.8598 18.2113C23.4264 17.3569 24.9361 16.4272 26.3815 15.4266C26.5039 15.4191 26.6308 15.4141 26.7658 15.4141C27.2235 15.4127 27.6794 15.4638 28.1215 15.566L28.199 15.5844C27.9761 16.393 28.243 17.2453 29.0491 17.8762C29.7895 18.4551 30.8258 18.7207 31.8308 18.6535C31.9763 19.2266 31.9681 19.757 31.9128 20.1641ZM34.4386 27.141C33.8817 27.141 33.6433 26.7754 34.082 26.0949C34.5962 25.5281 35.2193 25.0617 35.8396 24.5918C36.4708 24.123 37.1125 23.6566 37.7201 23.1496C38.32 22.6387 38.896 22.0836 39.311 21.4324C39.7338 20.7898 39.9549 20.0359 39.8675 19.3148C39.7886 20.0367 39.4746 20.7031 39.0301 21.2898C38.5824 21.8762 38.0205 22.3977 37.4274 22.8941C36.875 23.3637 36.2909 23.8141 35.7318 24.2926C35.5161 24.3207 35.2315 24.348 34.9388 24.348C34.2442 24.348 33.511 24.1922 33.5704 23.5262C33.7417 23.1371 33.994 22.8043 34.2777 22.4883C34.5645 22.1738 34.8763 21.8719 35.1876 21.5602C35.4921 21.2437 35.8011 20.918 36.0345 20.5414C36.2692 20.1723 36.4246 19.7301 36.3349 19.3148C36.2461 19.7258 36.0236 20.0723 35.7567 20.3941C35.4857 20.7148 35.1772 21.018 34.8672 21.3297C34.5641 21.6453 34.2537 21.9684 34.0072 22.334C33.9437 22.4259 33.8854 22.5204 33.8327 22.6172C33.694 22.6306 33.5545 22.6377 33.415 22.6383C32.7072 22.6383 31.6795 22.4434 32.5259 21.1664C32.5259 21.1664 33.0833 19.8121 32.5848 18.2547C32.5848 18.2547 32.883 17.4461 33.801 17.0266C33.801 17.0266 34.2736 17.1395 35.2909 17.1395C36.3974 17.1395 38.1488 17.0059 40.6378 16.4477C40.8283 16.4034 41.0245 16.3801 41.2218 16.3785C45.2039 16.3785 42.7738 27.141 34.4386 27.141Z" fill="white"/>
</g>
<defs>
<clipPath id="clip0_44_225">
<rect width="29" height="25" fill="white" transform="translate(16 4)"/>
</clipPath>
</defs>
</svg>
