<svg width="60" height="65" viewBox="0 0 60 65" fill="none" xmlns="http://www.w3.org/2000/svg">
<g clip-path="url(#clip0_44_219)">
<rect width="33.0183" height="37.7352" rx="10" transform="matrix(0.848014 -0.529974 0.848014 0.529974 0 15.4989)" fill="#232439"/>
<g clip-path="url(#clip1_44_219)">
<path d="M32.5061 7.33373C31.5343 7.89483 31.6663 8.88037 32.7993 9.53451C33.0324 9.66913 33.2925 9.77213 33.5615 9.85759L33.5809 14.8207C33.0004 14.8326 32.4506 14.949 32.0361 15.1884C31.5576 15.4646 31.3497 15.8435 31.3942 16.2349L26.0726 17.0417C24.9432 16.4651 23.3478 16.4127 22.4189 16.949C21.4478 17.5097 21.5791 18.4956 22.7121 19.1498C23.0224 19.3289 23.3764 19.4602 23.7455 19.5514L24.9279 24.189C24.6521 24.2516 24.3947 24.3395 24.1773 24.465C23.2055 25.0261 23.3367 26.0112 24.4705 26.6658C25.6043 27.3204 27.3104 27.3962 28.2822 26.8351C29.254 26.274 29.1228 25.2889 27.989 24.6343C27.7164 24.4769 27.4083 24.3543 27.0872 24.2648L25.9004 19.5605C26.1264 19.4992 26.34 19.4242 26.523 19.3186C27.0346 19.0232 27.2325 18.6093 27.1461 18.1881L32.3536 17.4007C33.4879 18.0418 35.1753 18.1141 36.1394 17.5575C37.1112 16.9964 36.98 16.0113 35.8462 15.3567C35.8101 15.3358 35.7679 15.3204 35.7303 15.3004L35.7197 10.0099C36.0496 9.94927 36.3537 9.84858 36.6077 9.70191C37.5795 9.14081 37.4483 8.15574 36.3145 7.50113C35.1807 6.84651 33.4746 6.77074 32.5028 7.33183L32.5061 7.33373Z" fill="white"/>
</g>
</g>
<defs>
<clipPath id="clip0_44_219">
<rect width="60" height="65" fill="white"/>
</clipPath>
<clipPath id="clip1_44_219">
<rect width="26.0023" height="30.336" fill="white" transform="matrix(0.866017 -0.500014 0.866017 0.500014 6 16.0015)"/>
</clipPath>
</defs>
</svg>
