<svg width="60" height="65" viewBox="0 0 60 65" fill="none" xmlns="http://www.w3.org/2000/svg">
<rect width="33.366" height="38.1325" rx="10" transform="matrix(0.839179 -0.543856 0.839179 0.543856 0 43.4246)" fill="#232439" fill-opacity="0.2"/>
<rect width="33.366" height="38.1325" rx="10" transform="matrix(0.839179 -0.543856 0.839179 0.543856 0 36.8042)" fill="#232439" fill-opacity="0.4"/>
<rect width="33.366" height="38.1325" rx="10" transform="matrix(0.839179 -0.543856 0.839179 0.543856 0 30.2124)" fill="#232439" fill-opacity="0.6"/>
<rect width="33.366" height="38.1325" rx="10" transform="matrix(0.839179 -0.543856 0.839179 0.543856 0 24.1171)" fill="#232439" fill-opacity="0.8"/>
<rect width="33.366" height="38.1325" rx="10" transform="matrix(0.839179 -0.543856 0.839179 0.543856 0 16.1462)" fill="#232439"/>
<g clip-path="url(#clip0_44_209)">
<path d="M32.5061 8.33385C31.5343 8.89495 31.6664 9.88049 32.7993 10.5346C33.0325 10.6693 33.2925 10.7723 33.5615 10.8577L33.5809 15.8208C33.0005 15.8327 32.4506 15.9492 32.0362 16.1885C31.5576 16.4648 31.3497 16.8436 31.3943 17.235L26.0726 18.0418C24.9432 17.4653 23.3478 17.4128 22.4189 17.9491C21.4478 18.5098 21.5791 19.4957 22.7121 20.1499C23.0224 20.3291 23.3764 20.4603 23.7455 20.5515L24.9279 25.1891C24.6521 25.2517 24.3948 25.3396 24.1773 25.4651C23.2055 26.0262 23.3368 27.0113 24.4705 27.6659C25.6043 28.3205 27.3104 28.3963 28.2823 27.8352C29.2541 27.2741 29.1228 26.289 27.989 25.6344C27.7165 25.4771 27.4084 25.3544 27.0873 25.2649L25.9005 20.5606C26.1265 20.4993 26.34 20.4243 26.523 20.3187C27.0346 20.0233 27.2326 19.6094 27.1461 19.1882L32.3536 18.4008C33.4879 19.0419 35.1754 19.1142 36.1394 18.5576C37.1113 17.9965 36.98 17.0114 35.8462 16.3568C35.8101 16.336 35.7679 16.3205 35.7304 16.3005L35.7197 11.01C36.0496 10.9494 36.3537 10.8487 36.6078 10.702C37.5796 10.1409 37.4483 9.15586 36.3145 8.50125C35.1808 7.84663 33.4746 7.77086 32.5028 8.33196L32.5061 8.33385Z" fill="white"/>
</g>
<defs>
<clipPath id="clip0_44_209">
<rect width="26.0023" height="30.336" fill="white" transform="matrix(0.866017 -0.500014 0.866017 0.500014 6 17.0016)"/>
</clipPath>
</defs>
</svg>
