<svg width="60" height="84" viewBox="0 0 60 84" fill="none" xmlns="http://www.w3.org/2000/svg">
<rect width="33.366" height="38.1325" rx="10" transform="matrix(0.839179 -0.543856 0.839179 0.543856 0 47.4246)" fill="#232439" fill-opacity="0.2"/>
<rect width="33.366" height="38.1325" rx="10" transform="matrix(0.839179 -0.543856 0.839179 0.543856 0 40.8042)" fill="#232439" fill-opacity="0.4"/>
<rect width="33.366" height="38.1325" rx="10" transform="matrix(0.839179 -0.543856 0.839179 0.543856 0 34.2124)" fill="#232439" fill-opacity="0.6"/>
<rect width="33.366" height="38.1325" rx="10" transform="matrix(0.839179 -0.543856 0.839179 0.543856 0 28.1171)" fill="#232439" fill-opacity="0.8"/>
<rect width="33.366" height="38.1325" rx="10" transform="matrix(0.839179 -0.543856 0.839179 0.543856 0 20.1462)" fill="#232439"/>
<g clip-path="url(#clip0_44_193)">
<path d="M41.0333 18L44.1 20.6667C44.56 21.0667 44.56 21.6 44.1 22L30.3 34C29.84 34.4 29.2267 34.4 28.7667 34L18.8 25.3333C18.34 24.9333 18.34 24.4 18.8 24L32.6 12C33.06 11.6 33.6733 11.6 34.1333 12L37.2 14.6667L33.75 17.6667C32.6767 18.6 32.6767 20.0667 33.75 21C34.8233 21.9333 36.51 21.9333 37.5833 21L41.0333 18ZM34.9 18.6667C34.44 19.0667 34.44 19.6 34.9 20C35.36 20.4 35.9733 20.4 36.4333 20C36.8933 19.6 36.8933 19.0667 36.4333 18.6667C35.9733 18.2667 35.36 18.2667 34.9 18.6667ZM20.7167 9C19.6433 9.93333 19.6433 11.4 20.7167 12.3333C21.79 13.2667 23.4767 13.2667 24.55 12.3333C25.6233 11.4 25.6233 9.93333 24.55 9C23.4767 8.06667 21.79 8.06667 20.7167 9ZM23.9367 16.8667C23.7833 16.4667 23.5533 16.1333 23.17 15.8C21.8667 14.6667 19.8733 14.6667 18.57 15.8C17.2667 16.9333 17.2667 18.6667 18.57 19.8C18.9533 20.1333 19.3367 20.3333 19.7967 20.4667L23.9367 16.8667Z" fill="white"/>
</g>
<defs>
<clipPath id="clip0_44_193">
<rect width="30.4795" height="30.4795" fill="white" transform="matrix(0.754605 -0.656179 0.754605 0.656179 5 20)"/>
</clipPath>
</defs>
</svg>
